<svg width="1263" height="356" viewBox="0 0 1263 356" fill="none" xmlns="http://www.w3.org/2000/svg">
<g filter="url(#filter0_d_15_30)">
<path fill-rule="evenodd" clip-rule="evenodd" d="M347.609 142.128C367.135 161.655 367.135 193.313 347.609 212.839L295.99 264.458C276.464 283.984 244.806 283.984 225.279 264.458C217.852 257.031 206.569 255.051 197.057 259.506L190.563 262.548C186.865 264.279 183.571 266.741 180.353 269.255C160.902 284.45 132.795 283.239 114.723 265.619L114.264 265.165L62.6448 213.546L62.1904 213.086C43.2698 193.68 43.2698 162.702 62.1904 143.295L62.6448 142.836L114.264 91.2168C132.854 72.6259 162.443 71.7354 182.087 88.5451C184.071 90.2425 186.106 91.896 188.345 93.2392L190.858 94.7471C201.945 101.399 216.137 99.6522 225.279 90.5097C244.806 70.9835 276.464 70.9835 295.99 90.5097L347.609 142.128ZM180.633 100.951C179.289 98.7127 177.715 96.5986 175.703 94.9354C159.596 81.624 135.702 82.5058 120.628 97.5807L69.0087 149.2C52.9972 165.211 52.9972 191.171 69.0087 207.182L120.628 258.801C134.912 273.086 157.115 274.626 173.108 263.423C176.997 260.698 179.563 256.503 181.382 252.116C186.946 238.697 183.933 223.111 173.661 212.839C154.134 193.313 154.134 161.655 173.661 142.128L175.831 139.958C186.191 129.598 188.171 113.515 180.633 100.951Z" fill="#03203C"/>
</g>
<path d="M490.643 234.637C480.377 234.637 471.043 232.304 462.643 227.637C454.377 222.971 447.843 216.371 443.043 207.837C438.377 199.171 436.043 189.171 436.043 177.837C436.043 166.637 438.443 156.771 443.243 148.237C448.177 139.571 454.843 132.971 463.243 128.437C471.643 123.771 481.043 121.437 491.443 121.437C501.843 121.437 511.243 123.771 519.643 128.437C528.043 132.971 534.643 139.504 539.443 148.037C544.377 156.571 546.843 166.504 546.843 177.837C546.843 189.171 544.31 199.171 539.243 207.837C534.31 216.371 527.577 222.971 519.043 227.637C510.51 232.304 501.043 234.637 490.643 234.637ZM490.643 218.637C497.177 218.637 503.31 217.104 509.043 214.037C514.777 210.971 519.377 206.371 522.843 200.237C526.443 194.104 528.243 186.637 528.243 177.837C528.243 169.037 526.51 161.571 523.043 155.437C519.577 149.304 515.043 144.771 509.443 141.837C503.843 138.771 497.777 137.237 491.243 137.237C484.577 137.237 478.443 138.771 472.843 141.837C467.377 144.771 462.977 149.304 459.643 155.437C456.31 161.571 454.643 169.037 454.643 177.837C454.643 186.771 456.243 194.304 459.443 200.437C462.777 206.571 467.177 211.171 472.643 214.237C478.11 217.171 484.11 218.637 490.643 218.637ZM624.173 121.237C637.506 121.237 648.306 125.304 656.573 133.437C664.84 141.437 668.973 153.037 668.973 168.237V232.837H650.973V170.837C650.973 159.904 648.24 151.571 642.773 145.837C637.306 139.971 629.84 137.037 620.373 137.037C610.773 137.037 603.106 140.037 597.373 146.037C591.773 152.037 588.973 160.771 588.973 172.237V232.837H570.773V123.237H588.973V138.837C592.573 133.237 597.44 128.904 603.573 125.837C609.84 122.771 616.706 121.237 624.173 121.237ZM737.503 234.637C729.103 234.637 721.569 233.237 714.903 230.437C708.236 227.504 702.969 223.504 699.103 218.437C695.236 213.237 693.103 207.304 692.703 200.637H711.503C712.036 206.104 714.569 210.571 719.103 214.037C723.769 217.504 729.836 219.237 737.303 219.237C744.236 219.237 749.703 217.704 753.703 214.637C757.703 211.571 759.703 207.704 759.703 203.037C759.703 198.237 757.569 194.704 753.303 192.437C749.036 190.037 742.436 187.704 733.503 185.437C725.369 183.304 718.703 181.171 713.503 179.037C708.436 176.771 704.036 173.504 700.303 169.237C696.703 164.837 694.903 159.104 694.903 152.037C694.903 146.437 696.569 141.304 699.903 136.637C703.236 131.971 707.969 128.304 714.103 125.637C720.236 122.837 727.236 121.437 735.103 121.437C747.236 121.437 757.036 124.504 764.503 130.637C771.969 136.771 775.969 145.171 776.503 155.837H758.303C757.903 150.104 755.569 145.504 751.303 142.037C747.169 138.571 741.569 136.837 734.503 136.837C727.969 136.837 722.769 138.237 718.903 141.037C715.036 143.837 713.103 147.504 713.103 152.037C713.103 155.637 714.236 158.637 716.503 161.037C718.903 163.304 721.836 165.171 725.303 166.637C728.903 167.971 733.836 169.504 740.103 171.237C747.969 173.371 754.369 175.504 759.303 177.637C764.236 179.637 768.436 182.704 771.903 186.837C775.503 190.971 777.369 196.371 777.503 203.037C777.503 209.037 775.836 214.437 772.503 219.237C769.169 224.037 764.436 227.837 758.303 230.637C752.303 233.304 745.369 234.637 737.503 234.637ZM796.395 177.637C796.395 166.437 798.661 156.637 803.195 148.237C807.728 139.704 813.928 133.104 821.795 128.437C829.795 123.771 838.661 121.437 848.395 121.437C857.995 121.437 866.328 123.504 873.395 127.637C880.461 131.771 885.728 136.971 889.195 143.237V123.237H907.595V232.837H889.195V212.437C885.595 218.837 880.195 224.171 872.995 228.437C865.928 232.571 857.661 234.637 848.195 234.637C838.461 234.637 829.661 232.237 821.795 227.437C813.928 222.637 807.728 215.904 803.195 207.237C798.661 198.571 796.395 188.704 796.395 177.637ZM889.195 177.837C889.195 169.571 887.528 162.371 884.195 156.237C880.861 150.104 876.328 145.437 870.595 142.237C864.995 138.904 858.795 137.237 851.995 137.237C845.195 137.237 838.995 138.837 833.395 142.037C827.795 145.237 823.328 149.904 819.995 156.037C816.661 162.171 814.995 169.371 814.995 177.637C814.995 186.037 816.661 193.371 819.995 199.637C823.328 205.771 827.795 210.504 833.395 213.837C838.995 217.037 845.195 218.637 851.995 218.637C858.795 218.637 864.995 217.037 870.595 213.837C876.328 210.504 880.861 205.771 884.195 199.637C887.528 193.371 889.195 186.104 889.195 177.837ZM991.751 121.237C1005.08 121.237 1015.88 125.304 1024.15 133.437C1032.42 141.437 1036.55 153.037 1036.55 168.237V232.837H1018.55V170.837C1018.55 159.904 1015.82 151.571 1010.35 145.837C1004.88 139.971 997.418 137.037 987.951 137.037C978.351 137.037 970.684 140.037 964.951 146.037C959.351 152.037 956.551 160.771 956.551 172.237V232.837H938.351V123.237H956.551V138.837C960.151 133.237 965.018 128.904 971.151 125.837C977.418 122.771 984.284 121.237 991.751 121.237ZM1114.08 234.637C1103.81 234.637 1094.48 232.304 1086.08 227.637C1077.81 222.971 1071.28 216.371 1066.48 207.837C1061.81 199.171 1059.48 189.171 1059.48 177.837C1059.48 166.637 1061.88 156.771 1066.68 148.237C1071.61 139.571 1078.28 132.971 1086.68 128.437C1095.08 123.771 1104.48 121.437 1114.88 121.437C1125.28 121.437 1134.68 123.771 1143.08 128.437C1151.48 132.971 1158.08 139.504 1162.88 148.037C1167.81 156.571 1170.28 166.504 1170.28 177.837C1170.28 189.171 1167.75 199.171 1162.68 207.837C1157.75 216.371 1151.01 222.971 1142.48 227.637C1133.95 232.304 1124.48 234.637 1114.08 234.637ZM1114.08 218.637C1120.61 218.637 1126.75 217.104 1132.48 214.037C1138.21 210.971 1142.81 206.371 1146.28 200.237C1149.88 194.104 1151.68 186.637 1151.68 177.837C1151.68 169.037 1149.95 161.571 1146.48 155.437C1143.01 149.304 1138.48 144.771 1132.88 141.837C1127.28 138.771 1121.21 137.237 1114.68 137.237C1108.01 137.237 1101.88 138.771 1096.28 141.837C1090.81 144.771 1086.41 149.304 1083.08 155.437C1079.75 161.571 1078.08 169.037 1078.08 177.837C1078.08 186.771 1079.68 194.304 1082.88 200.437C1086.21 206.571 1090.61 211.171 1096.08 214.237C1101.55 217.171 1107.55 218.637 1114.08 218.637Z" fill="#03203C"/>
<defs>
<filter id="filter0_d_15_30" x="0" y="57.865" width="380.253" height="269.945" filterUnits="userSpaceOnUse" color-interpolation-filters="sRGB">
<feFlood flood-opacity="0" result="BackgroundImageFix"/>
<feColorMatrix in="SourceAlpha" type="matrix" values="0 0 0 0 0 0 0 0 0 0 0 0 0 0 0 0 0 0 127 0" result="hardAlpha"/>
<feOffset dx="-15" dy="15"/>
<feGaussianBlur stdDeviation="16.5"/>
<feComposite in2="hardAlpha" operator="out"/>
<feColorMatrix type="matrix" values="0 0 0 0 0 0 0 0 0 0 0 0 0 0 0 0 0 0 0.25 0"/>
<feBlend mode="normal" in2="BackgroundImageFix" result="effect1_dropShadow_15_30"/>
<feBlend mode="normal" in="SourceGraphic" in2="effect1_dropShadow_15_30" result="shape"/>
</filter>
</defs>
</svg>
